<mxfile host="Electron" modified="2024-03-05T15:13:09.962Z" agent="Mozilla/5.0 (Windows NT 10.0; Win64; x64) AppleWebKit/537.36 (KHTML, like Gecko) draw.io/23.0.2 Chrome/120.0.6099.109 Electron/28.1.0 Safari/537.36" etag="1OmxR24csf5fAJV3o3Et" version="23.0.2" type="device">
  <diagram name="Page-1" id="large_distance">
    <mxGraphModel dx="1816" dy="1746" grid="1" gridSize="10" guides="1" tooltips="1" connect="1" arrows="1" fold="1" page="1" pageScale="1" pageWidth="827" pageHeight="1169" math="1" shadow="0">
      <root>
        <mxCell id="0" />
        <mxCell id="1" parent="0" />
        <mxCell id="collsionpoint-0" value="" style="ellipse;whiteSpace=wrap;html=1;aspect=fixed;fontSize=20;fillColor=#eeeeee;strokeColor=#36393d;" parent="1" vertex="1">
          <mxGeometry x="-15" y="-15" width="30" height="30" as="geometry" />
        </mxCell>
        <mxCell id="collsionpoint-1" value="" style="ellipse;whiteSpace=wrap;html=1;aspect=fixed;fontSize=20;fillColor=#eeeeee;strokeColor=#36393d;" parent="1" vertex="1">
          <mxGeometry x="5" y="-15" width="30" height="30" as="geometry" />
        </mxCell>
        <mxCell id="collsionpoint-2" value="" style="ellipse;whiteSpace=wrap;html=1;aspect=fixed;fontSize=20;fillColor=#eeeeee;strokeColor=#36393d;" parent="1" vertex="1">
          <mxGeometry x="25" y="-15" width="30" height="30" as="geometry" />
        </mxCell>
        <mxCell id="collsionpoint-3" value="" style="ellipse;whiteSpace=wrap;html=1;aspect=fixed;fontSize=20;fillColor=#eeeeee;strokeColor=#36393d;" parent="1" vertex="1">
          <mxGeometry x="45" y="-15" width="30" height="30" as="geometry" />
        </mxCell>
        <mxCell id="collsionpoint-4" value="" style="ellipse;whiteSpace=wrap;html=1;aspect=fixed;fontSize=20;fillColor=#eeeeee;strokeColor=#36393d;" parent="1" vertex="1">
          <mxGeometry x="65" y="-15" width="30" height="30" as="geometry" />
        </mxCell>
        <mxCell id="collsionpoint-5" value="" style="ellipse;whiteSpace=wrap;html=1;aspect=fixed;fontSize=20;fillColor=#eeeeee;strokeColor=#36393d;" parent="1" vertex="1">
          <mxGeometry x="85" y="-15" width="30" height="30" as="geometry" />
        </mxCell>
        <mxCell id="collsionpoint-6" value="" style="ellipse;whiteSpace=wrap;html=1;aspect=fixed;fontSize=20;fillColor=#eeeeee;strokeColor=#36393d;" parent="1" vertex="1">
          <mxGeometry x="105" y="-15" width="30" height="30" as="geometry" />
        </mxCell>
        <mxCell id="collsionpoint-7" value="" style="ellipse;whiteSpace=wrap;html=1;aspect=fixed;fontSize=20;fillColor=#eeeeee;strokeColor=#36393d;" parent="1" vertex="1">
          <mxGeometry x="125" y="-15" width="30" height="30" as="geometry" />
        </mxCell>
        <mxCell id="collsionpoint-8" value="" style="ellipse;whiteSpace=wrap;html=1;aspect=fixed;fontSize=20;fillColor=#eeeeee;strokeColor=#36393d;" parent="1" vertex="1">
          <mxGeometry x="145" y="-15" width="30" height="30" as="geometry" />
        </mxCell>
        <mxCell id="collsionpoint-9" value="" style="ellipse;whiteSpace=wrap;html=1;aspect=fixed;fontSize=20;fillColor=#eeeeee;strokeColor=#36393d;" parent="1" vertex="1">
          <mxGeometry x="165" y="-15" width="30" height="30" as="geometry" />
        </mxCell>
        <mxCell id="collsionpoint-10" value="" style="ellipse;whiteSpace=wrap;html=1;aspect=fixed;fontSize=20;fillColor=#eeeeee;strokeColor=#36393d;" parent="1" vertex="1">
          <mxGeometry x="185" y="-15" width="30" height="30" as="geometry" />
        </mxCell>
        <mxCell id="collsionpoint-11" value="" style="ellipse;whiteSpace=wrap;html=1;aspect=fixed;fontSize=20;fillColor=#eeeeee;strokeColor=#36393d;" parent="1" vertex="1">
          <mxGeometry x="205" y="-15" width="30" height="30" as="geometry" />
        </mxCell>
        <mxCell id="collsionpoint-12" value="" style="ellipse;whiteSpace=wrap;html=1;aspect=fixed;fontSize=20;fillColor=#eeeeee;strokeColor=#36393d;" parent="1" vertex="1">
          <mxGeometry x="225" y="-15" width="30" height="30" as="geometry" />
        </mxCell>
        <mxCell id="collsionpoint-13" value="" style="ellipse;whiteSpace=wrap;html=1;aspect=fixed;fontSize=20;fillColor=#eeeeee;strokeColor=#36393d;" parent="1" vertex="1">
          <mxGeometry x="245" y="-15" width="30" height="30" as="geometry" />
        </mxCell>
        <mxCell id="collsionpoint-14" value="" style="ellipse;whiteSpace=wrap;html=1;aspect=fixed;fontSize=20;fillColor=#eeeeee;strokeColor=#36393d;" parent="1" vertex="1">
          <mxGeometry x="265" y="-15" width="30" height="30" as="geometry" />
        </mxCell>
        <mxCell id="collsionpoint-15" value="" style="ellipse;whiteSpace=wrap;html=1;aspect=fixed;fontSize=20;fillColor=#eeeeee;strokeColor=#36393d;" parent="1" vertex="1">
          <mxGeometry x="285" y="-15" width="30" height="30" as="geometry" />
        </mxCell>
        <mxCell id="collsionpoint-16" value="" style="ellipse;whiteSpace=wrap;html=1;aspect=fixed;fontSize=20;fillColor=#eeeeee;strokeColor=#36393d;" parent="1" vertex="1">
          <mxGeometry x="305" y="-15" width="30" height="30" as="geometry" />
        </mxCell>
        <mxCell id="collsionpoint-17" value="" style="ellipse;whiteSpace=wrap;html=1;aspect=fixed;fontSize=20;fillColor=#eeeeee;strokeColor=#36393d;" parent="1" vertex="1">
          <mxGeometry x="325" y="-15" width="30" height="30" as="geometry" />
        </mxCell>
        <mxCell id="collsionpoint-18" value="" style="ellipse;whiteSpace=wrap;html=1;aspect=fixed;fontSize=20;fillColor=#eeeeee;strokeColor=#36393d;" parent="1" vertex="1">
          <mxGeometry x="345" y="-15" width="30" height="30" as="geometry" />
        </mxCell>
        <mxCell id="collsionpoint-19" value="" style="ellipse;whiteSpace=wrap;html=1;aspect=fixed;fontSize=20;fillColor=#eeeeee;strokeColor=#36393d;" parent="1" vertex="1">
          <mxGeometry x="365" y="-15" width="30" height="30" as="geometry" />
        </mxCell>
        <mxCell id="collsionpoint-20" value="" style="ellipse;whiteSpace=wrap;html=1;aspect=fixed;fontSize=20;fillColor=#eeeeee;strokeColor=#36393d;" parent="1" vertex="1">
          <mxGeometry x="385" y="-15" width="30" height="30" as="geometry" />
        </mxCell>
        <mxCell id="collsionpoint-21" value="" style="ellipse;whiteSpace=wrap;html=1;aspect=fixed;fontSize=20;fillColor=#eeeeee;strokeColor=#36393d;" parent="1" vertex="1">
          <mxGeometry x="405" y="-15" width="30" height="30" as="geometry" />
        </mxCell>
        <mxCell id="collsionpoint-22" value="" style="ellipse;whiteSpace=wrap;html=1;aspect=fixed;fontSize=20;fillColor=#eeeeee;strokeColor=#36393d;" parent="1" vertex="1">
          <mxGeometry x="425" y="-15" width="30" height="30" as="geometry" />
        </mxCell>
        <mxCell id="collsionpoint-23" value="" style="ellipse;whiteSpace=wrap;html=1;aspect=fixed;fontSize=20;fillColor=#eeeeee;strokeColor=#36393d;" parent="1" vertex="1">
          <mxGeometry x="445" y="-15" width="30" height="30" as="geometry" />
        </mxCell>
        <mxCell id="collsionpoint-24" value="" style="ellipse;whiteSpace=wrap;html=1;aspect=fixed;fontSize=20;fillColor=#eeeeee;strokeColor=#36393d;" parent="1" vertex="1">
          <mxGeometry x="465" y="-15" width="30" height="30" as="geometry" />
        </mxCell>
        <mxCell id="collsionpoint-25" value="" style="ellipse;whiteSpace=wrap;html=1;aspect=fixed;fontSize=20;fillColor=#eeeeee;strokeColor=#36393d;" parent="1" vertex="1">
          <mxGeometry x="485" y="-15" width="30" height="30" as="geometry" />
        </mxCell>
        <mxCell id="collsionpoint-26" value="" style="ellipse;whiteSpace=wrap;html=1;aspect=fixed;fontSize=20;fillColor=#eeeeee;strokeColor=#36393d;" parent="1" vertex="1">
          <mxGeometry x="505" y="-15" width="30" height="30" as="geometry" />
        </mxCell>
        <mxCell id="collsionpoint-27" value="" style="ellipse;whiteSpace=wrap;html=1;aspect=fixed;fontSize=20;fillColor=#eeeeee;strokeColor=#36393d;" parent="1" vertex="1">
          <mxGeometry x="525" y="-15" width="30" height="30" as="geometry" />
        </mxCell>
        <mxCell id="collsionpoint-28" value="" style="ellipse;whiteSpace=wrap;html=1;aspect=fixed;fontSize=20;fillColor=#eeeeee;strokeColor=#36393d;" parent="1" vertex="1">
          <mxGeometry x="545" y="-15" width="30" height="30" as="geometry" />
        </mxCell>
        <mxCell id="collsionpoint-29" value="" style="ellipse;whiteSpace=wrap;html=1;aspect=fixed;fontSize=20;fillColor=#eeeeee;strokeColor=#36393d;" parent="1" vertex="1">
          <mxGeometry x="565" y="-15" width="30" height="30" as="geometry" />
        </mxCell>
        <mxCell id="collsionpoint-30" value="" style="ellipse;whiteSpace=wrap;html=1;aspect=fixed;fontSize=20;fillColor=#eeeeee;strokeColor=#36393d;" parent="1" vertex="1">
          <mxGeometry x="585" y="-15" width="30" height="30" as="geometry" />
        </mxCell>
        <mxCell id="collsionpoint-31" value="" style="ellipse;whiteSpace=wrap;html=1;aspect=fixed;fontSize=20;fillColor=#eeeeee;strokeColor=#36393d;" parent="1" vertex="1">
          <mxGeometry x="605" y="-15" width="30" height="30" as="geometry" />
        </mxCell>
        <mxCell id="collsionpoint-32" value="" style="ellipse;whiteSpace=wrap;html=1;aspect=fixed;fontSize=20;fillColor=#eeeeee;strokeColor=#36393d;" parent="1" vertex="1">
          <mxGeometry x="625" y="-15" width="30" height="30" as="geometry" />
        </mxCell>
        <mxCell id="collsionpoint-33" value="" style="ellipse;whiteSpace=wrap;html=1;aspect=fixed;fontSize=20;fillColor=#eeeeee;strokeColor=#36393d;" parent="1" vertex="1">
          <mxGeometry x="645" y="-15" width="30" height="30" as="geometry" />
        </mxCell>
        <mxCell id="collsionpoint-34" value="" style="ellipse;whiteSpace=wrap;html=1;aspect=fixed;fontSize=20;fillColor=#eeeeee;strokeColor=#36393d;" parent="1" vertex="1">
          <mxGeometry x="665" y="-15" width="30" height="30" as="geometry" />
        </mxCell>
        <mxCell id="collsionpoint-35" value="" style="ellipse;whiteSpace=wrap;html=1;aspect=fixed;fontSize=20;fillColor=#eeeeee;strokeColor=#36393d;" parent="1" vertex="1">
          <mxGeometry x="685" y="-15" width="30" height="30" as="geometry" />
        </mxCell>
        <mxCell id="collsionpoint-36" value="" style="ellipse;whiteSpace=wrap;html=1;aspect=fixed;fontSize=20;fillColor=#eeeeee;strokeColor=#36393d;" parent="1" vertex="1">
          <mxGeometry x="705" y="-15" width="30" height="30" as="geometry" />
        </mxCell>
        <mxCell id="collsionpoint-37" value="" style="ellipse;whiteSpace=wrap;html=1;aspect=fixed;fontSize=20;fillColor=#eeeeee;strokeColor=#36393d;" parent="1" vertex="1">
          <mxGeometry x="725" y="-15" width="30" height="30" as="geometry" />
        </mxCell>
        <mxCell id="collsionpoint-38" value="" style="ellipse;whiteSpace=wrap;html=1;aspect=fixed;fontSize=20;fillColor=#eeeeee;strokeColor=#36393d;" parent="1" vertex="1">
          <mxGeometry x="745" y="-15" width="30" height="30" as="geometry" />
        </mxCell>
        <mxCell id="collsionpoint-39" value="" style="ellipse;whiteSpace=wrap;html=1;aspect=fixed;fontSize=20;fillColor=#eeeeee;strokeColor=#36393d;" parent="1" vertex="1">
          <mxGeometry x="765" y="-15" width="30" height="30" as="geometry" />
        </mxCell>
        <mxCell id="collsionpoint-40" value="" style="ellipse;whiteSpace=wrap;html=1;aspect=fixed;fontSize=20;fillColor=#eeeeee;strokeColor=#36393d;" parent="1" vertex="1">
          <mxGeometry x="785" y="-15" width="30" height="30" as="geometry" />
        </mxCell>
        <mxCell id="collsionpoint-41" value="" style="ellipse;whiteSpace=wrap;html=1;aspect=fixed;fontSize=20;fillColor=#eeeeee;strokeColor=#36393d;" parent="1" vertex="1">
          <mxGeometry x="805" y="-15" width="30" height="30" as="geometry" />
        </mxCell>
        <mxCell id="collsionpoint-42" value="" style="ellipse;whiteSpace=wrap;html=1;aspect=fixed;fontSize=20;fillColor=#eeeeee;strokeColor=#36393d;" parent="1" vertex="1">
          <mxGeometry x="85" y="5" width="30" height="30" as="geometry" />
        </mxCell>
        <mxCell id="collsionpoint-43" value="" style="ellipse;whiteSpace=wrap;html=1;aspect=fixed;fontSize=20;fillColor=#eeeeee;strokeColor=#36393d;" parent="1" vertex="1">
          <mxGeometry x="245" y="5" width="30" height="30" as="geometry" />
        </mxCell>
        <mxCell id="collsionpoint-44" value="" style="ellipse;whiteSpace=wrap;html=1;aspect=fixed;fontSize=20;fillColor=#eeeeee;strokeColor=#36393d;" parent="1" vertex="1">
          <mxGeometry x="545" y="5" width="30" height="30" as="geometry" />
        </mxCell>
        <mxCell id="collsionpoint-45" value="" style="ellipse;whiteSpace=wrap;html=1;aspect=fixed;fontSize=20;fillColor=#eeeeee;strokeColor=#36393d;" parent="1" vertex="1">
          <mxGeometry x="85" y="25" width="30" height="30" as="geometry" />
        </mxCell>
        <mxCell id="collsionpoint-46" value="" style="ellipse;whiteSpace=wrap;html=1;aspect=fixed;fontSize=20;fillColor=#eeeeee;strokeColor=#36393d;" parent="1" vertex="1">
          <mxGeometry x="245" y="25" width="30" height="30" as="geometry" />
        </mxCell>
        <mxCell id="collsionpoint-47" value="" style="ellipse;whiteSpace=wrap;html=1;aspect=fixed;fontSize=20;fillColor=#eeeeee;strokeColor=#36393d;" parent="1" vertex="1">
          <mxGeometry x="435" y="25" width="30" height="30" as="geometry" />
        </mxCell>
        <mxCell id="collsionpoint-48" value="" style="ellipse;whiteSpace=wrap;html=1;aspect=fixed;fontSize=20;fillColor=#eeeeee;strokeColor=#36393d;" parent="1" vertex="1">
          <mxGeometry x="455" y="25" width="30" height="30" as="geometry" />
        </mxCell>
        <mxCell id="collsionpoint-49" value="" style="ellipse;whiteSpace=wrap;html=1;aspect=fixed;fontSize=20;fillColor=#eeeeee;strokeColor=#36393d;" parent="1" vertex="1">
          <mxGeometry x="545" y="25" width="30" height="30" as="geometry" />
        </mxCell>
        <mxCell id="collsionpoint-50" value="" style="ellipse;whiteSpace=wrap;html=1;aspect=fixed;fontSize=20;fillColor=#eeeeee;strokeColor=#36393d;" parent="1" vertex="1">
          <mxGeometry x="85" y="45" width="30" height="30" as="geometry" />
        </mxCell>
        <mxCell id="collsionpoint-51" value="" style="ellipse;whiteSpace=wrap;html=1;aspect=fixed;fontSize=20;fillColor=#eeeeee;strokeColor=#36393d;" parent="1" vertex="1">
          <mxGeometry x="245" y="45" width="30" height="30" as="geometry" />
        </mxCell>
        <mxCell id="collsionpoint-52" value="" style="ellipse;whiteSpace=wrap;html=1;aspect=fixed;fontSize=20;fillColor=#eeeeee;strokeColor=#36393d;" parent="1" vertex="1">
          <mxGeometry x="435" y="45" width="30" height="30" as="geometry" />
        </mxCell>
        <mxCell id="collsionpoint-53" value="" style="ellipse;whiteSpace=wrap;html=1;aspect=fixed;fontSize=20;fillColor=#eeeeee;strokeColor=#36393d;" parent="1" vertex="1">
          <mxGeometry x="455" y="45" width="30" height="30" as="geometry" />
        </mxCell>
        <mxCell id="collsionpoint-54" value="" style="ellipse;whiteSpace=wrap;html=1;aspect=fixed;fontSize=20;fillColor=#eeeeee;strokeColor=#36393d;" parent="1" vertex="1">
          <mxGeometry x="545" y="45" width="30" height="30" as="geometry" />
        </mxCell>
        <mxCell id="collsionpoint-55" value="" style="ellipse;whiteSpace=wrap;html=1;aspect=fixed;fontSize=20;fillColor=#eeeeee;strokeColor=#36393d;" parent="1" vertex="1">
          <mxGeometry x="85" y="65" width="30" height="30" as="geometry" />
        </mxCell>
        <mxCell id="collsionpoint-56" value="" style="ellipse;whiteSpace=wrap;html=1;aspect=fixed;fontSize=20;fillColor=#eeeeee;strokeColor=#36393d;" parent="1" vertex="1">
          <mxGeometry x="325" y="65" width="30" height="30" as="geometry" />
        </mxCell>
        <mxCell id="collsionpoint-57" value="" style="ellipse;whiteSpace=wrap;html=1;aspect=fixed;fontSize=20;fillColor=#eeeeee;strokeColor=#36393d;" parent="1" vertex="1">
          <mxGeometry x="345" y="65" width="30" height="30" as="geometry" />
        </mxCell>
        <mxCell id="collsionpoint-58" value="" style="ellipse;whiteSpace=wrap;html=1;aspect=fixed;fontSize=20;fillColor=#eeeeee;strokeColor=#36393d;" parent="1" vertex="1">
          <mxGeometry x="435" y="65" width="30" height="30" as="geometry" />
        </mxCell>
        <mxCell id="collsionpoint-59" value="" style="ellipse;whiteSpace=wrap;html=1;aspect=fixed;fontSize=20;fillColor=#eeeeee;strokeColor=#36393d;" parent="1" vertex="1">
          <mxGeometry x="455" y="65" width="30" height="30" as="geometry" />
        </mxCell>
        <mxCell id="collsionpoint-60" value="" style="ellipse;whiteSpace=wrap;html=1;aspect=fixed;fontSize=20;fillColor=#eeeeee;strokeColor=#36393d;" parent="1" vertex="1">
          <mxGeometry x="545" y="65" width="30" height="30" as="geometry" />
        </mxCell>
        <mxCell id="collsionpoint-61" value="" style="ellipse;whiteSpace=wrap;html=1;aspect=fixed;fontSize=20;fillColor=#eeeeee;strokeColor=#36393d;" parent="1" vertex="1">
          <mxGeometry x="625" y="65" width="30" height="30" as="geometry" />
        </mxCell>
        <mxCell id="collsionpoint-62" value="" style="ellipse;whiteSpace=wrap;html=1;aspect=fixed;fontSize=20;fillColor=#eeeeee;strokeColor=#36393d;" parent="1" vertex="1">
          <mxGeometry x="645" y="65" width="30" height="30" as="geometry" />
        </mxCell>
        <mxCell id="collsionpoint-63" value="" style="ellipse;whiteSpace=wrap;html=1;aspect=fixed;fontSize=20;fillColor=#eeeeee;strokeColor=#36393d;" parent="1" vertex="1">
          <mxGeometry x="665" y="65" width="30" height="30" as="geometry" />
        </mxCell>
        <mxCell id="collsionpoint-64" value="" style="ellipse;whiteSpace=wrap;html=1;aspect=fixed;fontSize=20;fillColor=#eeeeee;strokeColor=#36393d;" parent="1" vertex="1">
          <mxGeometry x="685" y="65" width="30" height="30" as="geometry" />
        </mxCell>
        <mxCell id="collsionpoint-65" value="" style="ellipse;whiteSpace=wrap;html=1;aspect=fixed;fontSize=20;fillColor=#eeeeee;strokeColor=#36393d;" parent="1" vertex="1">
          <mxGeometry x="705" y="65" width="30" height="30" as="geometry" />
        </mxCell>
        <mxCell id="collsionpoint-66" value="" style="ellipse;whiteSpace=wrap;html=1;aspect=fixed;fontSize=20;fillColor=#eeeeee;strokeColor=#36393d;" parent="1" vertex="1">
          <mxGeometry x="725" y="65" width="30" height="30" as="geometry" />
        </mxCell>
        <mxCell id="collsionpoint-67" value="" style="ellipse;whiteSpace=wrap;html=1;aspect=fixed;fontSize=20;fillColor=#eeeeee;strokeColor=#36393d;" parent="1" vertex="1">
          <mxGeometry x="745" y="65" width="30" height="30" as="geometry" />
        </mxCell>
        <mxCell id="collsionpoint-68" value="" style="ellipse;whiteSpace=wrap;html=1;aspect=fixed;fontSize=20;fillColor=#eeeeee;strokeColor=#36393d;" parent="1" vertex="1">
          <mxGeometry x="765" y="65" width="30" height="30" as="geometry" />
        </mxCell>
        <mxCell id="collsionpoint-69" value="" style="ellipse;whiteSpace=wrap;html=1;aspect=fixed;fontSize=20;fillColor=#eeeeee;strokeColor=#36393d;" parent="1" vertex="1">
          <mxGeometry x="785" y="65" width="30" height="30" as="geometry" />
        </mxCell>
        <mxCell id="collsionpoint-70" value="" style="ellipse;whiteSpace=wrap;html=1;aspect=fixed;fontSize=20;fillColor=#eeeeee;strokeColor=#36393d;" parent="1" vertex="1">
          <mxGeometry x="805" y="65" width="30" height="30" as="geometry" />
        </mxCell>
        <mxCell id="collsionpoint-71" value="" style="ellipse;whiteSpace=wrap;html=1;aspect=fixed;fontSize=20;fillColor=#eeeeee;strokeColor=#36393d;" parent="1" vertex="1">
          <mxGeometry x="-15" y="75" width="30" height="30" as="geometry" />
        </mxCell>
        <mxCell id="collsionpoint-72" value="" style="ellipse;whiteSpace=wrap;html=1;aspect=fixed;fontSize=20;fillColor=#eeeeee;strokeColor=#36393d;" parent="1" vertex="1">
          <mxGeometry x="5" y="75" width="30" height="30" as="geometry" />
        </mxCell>
        <mxCell id="collsionpoint-73" value="" style="ellipse;whiteSpace=wrap;html=1;aspect=fixed;fontSize=20;fillColor=#eeeeee;strokeColor=#36393d;" parent="1" vertex="1">
          <mxGeometry x="85" y="85" width="30" height="30" as="geometry" />
        </mxCell>
        <mxCell id="collsionpoint-74" value="" style="ellipse;whiteSpace=wrap;html=1;aspect=fixed;fontSize=20;fillColor=#eeeeee;strokeColor=#36393d;" parent="1" vertex="1">
          <mxGeometry x="325" y="85" width="30" height="30" as="geometry" />
        </mxCell>
        <mxCell id="collsionpoint-75" value="" style="ellipse;whiteSpace=wrap;html=1;aspect=fixed;fontSize=20;fillColor=#eeeeee;strokeColor=#36393d;" parent="1" vertex="1">
          <mxGeometry x="345" y="85" width="30" height="30" as="geometry" />
        </mxCell>
        <mxCell id="collsionpoint-76" value="" style="ellipse;whiteSpace=wrap;html=1;aspect=fixed;fontSize=20;fillColor=#eeeeee;strokeColor=#36393d;" parent="1" vertex="1">
          <mxGeometry x="545" y="85" width="30" height="30" as="geometry" />
        </mxCell>
        <mxCell id="collsionpoint-77" value="" style="ellipse;whiteSpace=wrap;html=1;aspect=fixed;fontSize=20;fillColor=#eeeeee;strokeColor=#36393d;" parent="1" vertex="1">
          <mxGeometry x="685" y="85" width="30" height="30" as="geometry" />
        </mxCell>
        <mxCell id="collsionpoint-78" value="" style="ellipse;whiteSpace=wrap;html=1;aspect=fixed;fontSize=20;fillColor=#eeeeee;strokeColor=#36393d;" parent="1" vertex="1">
          <mxGeometry x="725" y="85" width="30" height="30" as="geometry" />
        </mxCell>
        <mxCell id="collsionpoint-79" value="" style="ellipse;whiteSpace=wrap;html=1;aspect=fixed;fontSize=20;fillColor=#eeeeee;strokeColor=#36393d;" parent="1" vertex="1">
          <mxGeometry x="85" y="105" width="30" height="30" as="geometry" />
        </mxCell>
        <mxCell id="collsionpoint-80" value="" style="ellipse;whiteSpace=wrap;html=1;aspect=fixed;fontSize=20;fillColor=#eeeeee;strokeColor=#36393d;" parent="1" vertex="1">
          <mxGeometry x="325" y="105" width="30" height="30" as="geometry" />
        </mxCell>
        <mxCell id="collsionpoint-81" value="" style="ellipse;whiteSpace=wrap;html=1;aspect=fixed;fontSize=20;fillColor=#eeeeee;strokeColor=#36393d;" parent="1" vertex="1">
          <mxGeometry x="345" y="105" width="30" height="30" as="geometry" />
        </mxCell>
        <mxCell id="collsionpoint-82" value="" style="ellipse;whiteSpace=wrap;html=1;aspect=fixed;fontSize=20;fillColor=#eeeeee;strokeColor=#36393d;" parent="1" vertex="1">
          <mxGeometry x="545" y="105" width="30" height="30" as="geometry" />
        </mxCell>
        <mxCell id="collsionpoint-83" value="" style="ellipse;whiteSpace=wrap;html=1;aspect=fixed;fontSize=20;fillColor=#eeeeee;strokeColor=#36393d;" parent="1" vertex="1">
          <mxGeometry x="685" y="105" width="30" height="30" as="geometry" />
        </mxCell>
        <mxCell id="collsionpoint-84" value="" style="ellipse;whiteSpace=wrap;html=1;aspect=fixed;fontSize=20;fillColor=#eeeeee;strokeColor=#36393d;" parent="1" vertex="1">
          <mxGeometry x="725" y="105" width="30" height="30" as="geometry" />
        </mxCell>
        <mxCell id="collsionpoint-85" value="" style="ellipse;whiteSpace=wrap;html=1;aspect=fixed;fontSize=20;fillColor=#eeeeee;strokeColor=#36393d;" parent="1" vertex="1">
          <mxGeometry x="85" y="125" width="30" height="30" as="geometry" />
        </mxCell>
        <mxCell id="collsionpoint-86" value="" style="ellipse;whiteSpace=wrap;html=1;aspect=fixed;fontSize=20;fillColor=#eeeeee;strokeColor=#36393d;" parent="1" vertex="1">
          <mxGeometry x="325" y="125" width="30" height="30" as="geometry" />
        </mxCell>
        <mxCell id="collsionpoint-87" value="" style="ellipse;whiteSpace=wrap;html=1;aspect=fixed;fontSize=20;fillColor=#eeeeee;strokeColor=#36393d;" parent="1" vertex="1">
          <mxGeometry x="345" y="125" width="30" height="30" as="geometry" />
        </mxCell>
        <mxCell id="collsionpoint-88" value="" style="ellipse;whiteSpace=wrap;html=1;aspect=fixed;fontSize=20;fillColor=#eeeeee;strokeColor=#36393d;" parent="1" vertex="1">
          <mxGeometry x="545" y="125" width="30" height="30" as="geometry" />
        </mxCell>
        <mxCell id="collsionpoint-89" value="" style="ellipse;whiteSpace=wrap;html=1;aspect=fixed;fontSize=20;fillColor=#eeeeee;strokeColor=#36393d;" parent="1" vertex="1">
          <mxGeometry x="645" y="125" width="30" height="30" as="geometry" />
        </mxCell>
        <mxCell id="collsionpoint-90" value="" style="ellipse;whiteSpace=wrap;html=1;aspect=fixed;fontSize=20;fillColor=#eeeeee;strokeColor=#36393d;" parent="1" vertex="1">
          <mxGeometry x="685" y="125" width="30" height="30" as="geometry" />
        </mxCell>
        <mxCell id="collsionpoint-91" value="" style="ellipse;whiteSpace=wrap;html=1;aspect=fixed;fontSize=20;fillColor=#eeeeee;strokeColor=#36393d;" parent="1" vertex="1">
          <mxGeometry x="25" y="145" width="30" height="30" as="geometry" />
        </mxCell>
        <mxCell id="collsionpoint-92" value="" style="ellipse;whiteSpace=wrap;html=1;aspect=fixed;fontSize=20;fillColor=#eeeeee;strokeColor=#36393d;" parent="1" vertex="1">
          <mxGeometry x="45" y="145" width="30" height="30" as="geometry" />
        </mxCell>
        <mxCell id="collsionpoint-93" value="" style="ellipse;whiteSpace=wrap;html=1;aspect=fixed;fontSize=20;fillColor=#eeeeee;strokeColor=#36393d;" parent="1" vertex="1">
          <mxGeometry x="65" y="145" width="30" height="30" as="geometry" />
        </mxCell>
        <mxCell id="collsionpoint-94" value="" style="ellipse;whiteSpace=wrap;html=1;aspect=fixed;fontSize=20;fillColor=#eeeeee;strokeColor=#36393d;" parent="1" vertex="1">
          <mxGeometry x="85" y="145" width="30" height="30" as="geometry" />
        </mxCell>
        <mxCell id="collsionpoint-95" value="" style="ellipse;whiteSpace=wrap;html=1;aspect=fixed;fontSize=20;fillColor=#eeeeee;strokeColor=#36393d;" parent="1" vertex="1">
          <mxGeometry x="325" y="145" width="30" height="30" as="geometry" />
        </mxCell>
        <mxCell id="collsionpoint-96" value="" style="ellipse;whiteSpace=wrap;html=1;aspect=fixed;fontSize=20;fillColor=#eeeeee;strokeColor=#36393d;" parent="1" vertex="1">
          <mxGeometry x="345" y="145" width="30" height="30" as="geometry" />
        </mxCell>
        <mxCell id="collsionpoint-97" value="" style="ellipse;whiteSpace=wrap;html=1;aspect=fixed;fontSize=20;fillColor=#eeeeee;strokeColor=#36393d;" parent="1" vertex="1">
          <mxGeometry x="435" y="145" width="30" height="30" as="geometry" />
        </mxCell>
        <mxCell id="collsionpoint-98" value="" style="ellipse;whiteSpace=wrap;html=1;aspect=fixed;fontSize=20;fillColor=#eeeeee;strokeColor=#36393d;" parent="1" vertex="1">
          <mxGeometry x="455" y="145" width="30" height="30" as="geometry" />
        </mxCell>
        <mxCell id="collsionpoint-99" value="" style="ellipse;whiteSpace=wrap;html=1;aspect=fixed;fontSize=20;fillColor=#eeeeee;strokeColor=#36393d;" parent="1" vertex="1">
          <mxGeometry x="645" y="145" width="30" height="30" as="geometry" />
        </mxCell>
        <mxCell id="collsionpoint-100" value="" style="ellipse;whiteSpace=wrap;html=1;aspect=fixed;fontSize=20;fillColor=#eeeeee;strokeColor=#36393d;" parent="1" vertex="1">
          <mxGeometry x="685" y="145" width="30" height="30" as="geometry" />
        </mxCell>
        <mxCell id="collsionpoint-101" value="" style="ellipse;whiteSpace=wrap;html=1;aspect=fixed;fontSize=20;fillColor=#eeeeee;strokeColor=#36393d;" parent="1" vertex="1">
          <mxGeometry x="245" y="165" width="30" height="30" as="geometry" />
        </mxCell>
        <mxCell id="collsionpoint-102" value="" style="ellipse;whiteSpace=wrap;html=1;aspect=fixed;fontSize=20;fillColor=#eeeeee;strokeColor=#36393d;" parent="1" vertex="1">
          <mxGeometry x="435" y="165" width="30" height="30" as="geometry" />
        </mxCell>
        <mxCell id="collsionpoint-103" value="" style="ellipse;whiteSpace=wrap;html=1;aspect=fixed;fontSize=20;fillColor=#eeeeee;strokeColor=#36393d;" parent="1" vertex="1">
          <mxGeometry x="455" y="165" width="30" height="30" as="geometry" />
        </mxCell>
        <mxCell id="collsionpoint-104" value="" style="ellipse;whiteSpace=wrap;html=1;aspect=fixed;fontSize=20;fillColor=#eeeeee;strokeColor=#36393d;" parent="1" vertex="1">
          <mxGeometry x="645" y="165" width="30" height="30" as="geometry" />
        </mxCell>
        <mxCell id="collsionpoint-105" value="" style="ellipse;whiteSpace=wrap;html=1;aspect=fixed;fontSize=20;fillColor=#eeeeee;strokeColor=#36393d;" parent="1" vertex="1">
          <mxGeometry x="245" y="185" width="30" height="30" as="geometry" />
        </mxCell>
        <mxCell id="collsionpoint-106" value="" style="ellipse;whiteSpace=wrap;html=1;aspect=fixed;fontSize=20;fillColor=#eeeeee;strokeColor=#36393d;" parent="1" vertex="1">
          <mxGeometry x="435" y="185" width="30" height="30" as="geometry" />
        </mxCell>
        <mxCell id="collsionpoint-107" value="" style="ellipse;whiteSpace=wrap;html=1;aspect=fixed;fontSize=20;fillColor=#eeeeee;strokeColor=#36393d;" parent="1" vertex="1">
          <mxGeometry x="455" y="185" width="30" height="30" as="geometry" />
        </mxCell>
        <mxCell id="collsionpoint-108" value="" style="ellipse;whiteSpace=wrap;html=1;aspect=fixed;fontSize=20;fillColor=#eeeeee;strokeColor=#36393d;" parent="1" vertex="1">
          <mxGeometry x="645" y="185" width="30" height="30" as="geometry" />
        </mxCell>
        <mxCell id="collsionpoint-109" value="" style="ellipse;whiteSpace=wrap;html=1;aspect=fixed;fontSize=20;fillColor=#eeeeee;strokeColor=#36393d;" parent="1" vertex="1">
          <mxGeometry x="245" y="205" width="30" height="30" as="geometry" />
        </mxCell>
        <mxCell id="collsionpoint-110" value="" style="ellipse;whiteSpace=wrap;html=1;aspect=fixed;fontSize=20;fillColor=#eeeeee;strokeColor=#36393d;" parent="1" vertex="1">
          <mxGeometry x="-15" y="225" width="30" height="30" as="geometry" />
        </mxCell>
        <mxCell id="collsionpoint-111" value="" style="ellipse;whiteSpace=wrap;html=1;aspect=fixed;fontSize=20;fillColor=#eeeeee;strokeColor=#36393d;" parent="1" vertex="1">
          <mxGeometry x="5" y="225" width="30" height="30" as="geometry" />
        </mxCell>
        <mxCell id="collsionpoint-112" value="" style="ellipse;whiteSpace=wrap;html=1;aspect=fixed;fontSize=20;fillColor=#eeeeee;strokeColor=#36393d;" parent="1" vertex="1">
          <mxGeometry x="25" y="225" width="30" height="30" as="geometry" />
        </mxCell>
        <mxCell id="collsionpoint-113" value="" style="ellipse;whiteSpace=wrap;html=1;aspect=fixed;fontSize=20;fillColor=#eeeeee;strokeColor=#36393d;" parent="1" vertex="1">
          <mxGeometry x="45" y="225" width="30" height="30" as="geometry" />
        </mxCell>
        <mxCell id="collsionpoint-114" value="" style="ellipse;whiteSpace=wrap;html=1;aspect=fixed;fontSize=20;fillColor=#eeeeee;strokeColor=#36393d;" parent="1" vertex="1">
          <mxGeometry x="65" y="225" width="30" height="30" as="geometry" />
        </mxCell>
        <mxCell id="collsionpoint-115" value="" style="ellipse;whiteSpace=wrap;html=1;aspect=fixed;fontSize=20;fillColor=#eeeeee;strokeColor=#36393d;" parent="1" vertex="1">
          <mxGeometry x="85" y="225" width="30" height="30" as="geometry" />
        </mxCell>
        <mxCell id="collsionpoint-116" value="" style="ellipse;whiteSpace=wrap;html=1;aspect=fixed;fontSize=20;fillColor=#eeeeee;strokeColor=#36393d;" parent="1" vertex="1">
          <mxGeometry x="105" y="225" width="30" height="30" as="geometry" />
        </mxCell>
        <mxCell id="collsionpoint-117" value="" style="ellipse;whiteSpace=wrap;html=1;aspect=fixed;fontSize=20;fillColor=#eeeeee;strokeColor=#36393d;" parent="1" vertex="1">
          <mxGeometry x="125" y="225" width="30" height="30" as="geometry" />
        </mxCell>
        <mxCell id="collsionpoint-118" value="" style="ellipse;whiteSpace=wrap;html=1;aspect=fixed;fontSize=20;fillColor=#eeeeee;strokeColor=#36393d;" parent="1" vertex="1">
          <mxGeometry x="145" y="225" width="30" height="30" as="geometry" />
        </mxCell>
        <mxCell id="collsionpoint-119" value="" style="ellipse;whiteSpace=wrap;html=1;aspect=fixed;fontSize=20;fillColor=#eeeeee;strokeColor=#36393d;" parent="1" vertex="1">
          <mxGeometry x="165" y="225" width="30" height="30" as="geometry" />
        </mxCell>
        <mxCell id="collsionpoint-120" value="" style="ellipse;whiteSpace=wrap;html=1;aspect=fixed;fontSize=20;fillColor=#eeeeee;strokeColor=#36393d;" parent="1" vertex="1">
          <mxGeometry x="185" y="225" width="30" height="30" as="geometry" />
        </mxCell>
        <mxCell id="collsionpoint-121" value="" style="ellipse;whiteSpace=wrap;html=1;aspect=fixed;fontSize=20;fillColor=#eeeeee;strokeColor=#36393d;" parent="1" vertex="1">
          <mxGeometry x="205" y="225" width="30" height="30" as="geometry" />
        </mxCell>
        <mxCell id="collsionpoint-122" value="" style="ellipse;whiteSpace=wrap;html=1;aspect=fixed;fontSize=20;fillColor=#eeeeee;strokeColor=#36393d;" parent="1" vertex="1">
          <mxGeometry x="225" y="225" width="30" height="30" as="geometry" />
        </mxCell>
        <mxCell id="collsionpoint-123" value="" style="ellipse;whiteSpace=wrap;html=1;aspect=fixed;fontSize=20;fillColor=#eeeeee;strokeColor=#36393d;" parent="1" vertex="1">
          <mxGeometry x="245" y="225" width="30" height="30" as="geometry" />
        </mxCell>
        <mxCell id="collsionpoint-124" value="" style="ellipse;whiteSpace=wrap;html=1;aspect=fixed;fontSize=20;fillColor=#eeeeee;strokeColor=#36393d;" parent="1" vertex="1">
          <mxGeometry x="265" y="225" width="30" height="30" as="geometry" />
        </mxCell>
        <mxCell id="collsionpoint-125" value="" style="ellipse;whiteSpace=wrap;html=1;aspect=fixed;fontSize=20;fillColor=#eeeeee;strokeColor=#36393d;" parent="1" vertex="1">
          <mxGeometry x="285" y="225" width="30" height="30" as="geometry" />
        </mxCell>
        <mxCell id="collsionpoint-126" value="" style="ellipse;whiteSpace=wrap;html=1;aspect=fixed;fontSize=20;fillColor=#eeeeee;strokeColor=#36393d;" parent="1" vertex="1">
          <mxGeometry x="305" y="225" width="30" height="30" as="geometry" />
        </mxCell>
        <mxCell id="collsionpoint-127" value="" style="ellipse;whiteSpace=wrap;html=1;aspect=fixed;fontSize=20;fillColor=#eeeeee;strokeColor=#36393d;" parent="1" vertex="1">
          <mxGeometry x="325" y="225" width="30" height="30" as="geometry" />
        </mxCell>
        <mxCell id="collsionpoint-128" value="" style="ellipse;whiteSpace=wrap;html=1;aspect=fixed;fontSize=20;fillColor=#eeeeee;strokeColor=#36393d;" parent="1" vertex="1">
          <mxGeometry x="345" y="225" width="30" height="30" as="geometry" />
        </mxCell>
        <mxCell id="collsionpoint-129" value="" style="ellipse;whiteSpace=wrap;html=1;aspect=fixed;fontSize=20;fillColor=#eeeeee;strokeColor=#36393d;" parent="1" vertex="1">
          <mxGeometry x="365" y="225" width="30" height="30" as="geometry" />
        </mxCell>
        <mxCell id="collsionpoint-130" value="" style="ellipse;whiteSpace=wrap;html=1;aspect=fixed;fontSize=20;fillColor=#eeeeee;strokeColor=#36393d;" parent="1" vertex="1">
          <mxGeometry x="385" y="225" width="30" height="30" as="geometry" />
        </mxCell>
        <mxCell id="collsionpoint-131" value="" style="ellipse;whiteSpace=wrap;html=1;aspect=fixed;fontSize=20;fillColor=#eeeeee;strokeColor=#36393d;" parent="1" vertex="1">
          <mxGeometry x="405" y="225" width="30" height="30" as="geometry" />
        </mxCell>
        <mxCell id="collsionpoint-132" value="" style="ellipse;whiteSpace=wrap;html=1;aspect=fixed;fontSize=20;fillColor=#eeeeee;strokeColor=#36393d;" parent="1" vertex="1">
          <mxGeometry x="425" y="225" width="30" height="30" as="geometry" />
        </mxCell>
        <mxCell id="collsionpoint-133" value="" style="ellipse;whiteSpace=wrap;html=1;aspect=fixed;fontSize=20;fillColor=#eeeeee;strokeColor=#36393d;" parent="1" vertex="1">
          <mxGeometry x="445" y="225" width="30" height="30" as="geometry" />
        </mxCell>
        <mxCell id="collsionpoint-134" value="" style="ellipse;whiteSpace=wrap;html=1;aspect=fixed;fontSize=20;fillColor=#eeeeee;strokeColor=#36393d;" parent="1" vertex="1">
          <mxGeometry x="465" y="225" width="30" height="30" as="geometry" />
        </mxCell>
        <mxCell id="collsionpoint-135" value="" style="ellipse;whiteSpace=wrap;html=1;aspect=fixed;fontSize=20;fillColor=#eeeeee;strokeColor=#36393d;" parent="1" vertex="1">
          <mxGeometry x="485" y="225" width="30" height="30" as="geometry" />
        </mxCell>
        <mxCell id="collsionpoint-136" value="" style="ellipse;whiteSpace=wrap;html=1;aspect=fixed;fontSize=20;fillColor=#eeeeee;strokeColor=#36393d;" parent="1" vertex="1">
          <mxGeometry x="505" y="225" width="30" height="30" as="geometry" />
        </mxCell>
        <mxCell id="collsionpoint-137" value="" style="ellipse;whiteSpace=wrap;html=1;aspect=fixed;fontSize=20;fillColor=#eeeeee;strokeColor=#36393d;" parent="1" vertex="1">
          <mxGeometry x="525" y="225" width="30" height="30" as="geometry" />
        </mxCell>
        <mxCell id="collsionpoint-138" value="" style="ellipse;whiteSpace=wrap;html=1;aspect=fixed;fontSize=20;fillColor=#eeeeee;strokeColor=#36393d;" parent="1" vertex="1">
          <mxGeometry x="545" y="225" width="30" height="30" as="geometry" />
        </mxCell>
        <mxCell id="collsionpoint-139" value="" style="ellipse;whiteSpace=wrap;html=1;aspect=fixed;fontSize=20;fillColor=#eeeeee;strokeColor=#36393d;" parent="1" vertex="1">
          <mxGeometry x="565" y="225" width="30" height="30" as="geometry" />
        </mxCell>
        <mxCell id="collsionpoint-140" value="" style="ellipse;whiteSpace=wrap;html=1;aspect=fixed;fontSize=20;fillColor=#eeeeee;strokeColor=#36393d;" parent="1" vertex="1">
          <mxGeometry x="585" y="225" width="30" height="30" as="geometry" />
        </mxCell>
        <mxCell id="collsionpoint-141" value="" style="ellipse;whiteSpace=wrap;html=1;aspect=fixed;fontSize=20;fillColor=#eeeeee;strokeColor=#36393d;" parent="1" vertex="1">
          <mxGeometry x="605" y="225" width="30" height="30" as="geometry" />
        </mxCell>
        <mxCell id="collsionpoint-142" value="" style="ellipse;whiteSpace=wrap;html=1;aspect=fixed;fontSize=20;fillColor=#eeeeee;strokeColor=#36393d;" parent="1" vertex="1">
          <mxGeometry x="625" y="225" width="30" height="30" as="geometry" />
        </mxCell>
        <mxCell id="collsionpoint-143" value="" style="ellipse;whiteSpace=wrap;html=1;aspect=fixed;fontSize=20;fillColor=#eeeeee;strokeColor=#36393d;" parent="1" vertex="1">
          <mxGeometry x="645" y="225" width="30" height="30" as="geometry" />
        </mxCell>
        <mxCell id="collsionpoint-144" value="" style="ellipse;whiteSpace=wrap;html=1;aspect=fixed;fontSize=20;fillColor=#eeeeee;strokeColor=#36393d;" parent="1" vertex="1">
          <mxGeometry x="665" y="225" width="30" height="30" as="geometry" />
        </mxCell>
        <mxCell id="collsionpoint-145" value="" style="ellipse;whiteSpace=wrap;html=1;aspect=fixed;fontSize=20;fillColor=#eeeeee;strokeColor=#36393d;" parent="1" vertex="1">
          <mxGeometry x="685" y="225" width="30" height="30" as="geometry" />
        </mxCell>
        <mxCell id="collsionpoint-146" value="" style="ellipse;whiteSpace=wrap;html=1;aspect=fixed;fontSize=20;fillColor=#eeeeee;strokeColor=#36393d;" parent="1" vertex="1">
          <mxGeometry x="705" y="225" width="30" height="30" as="geometry" />
        </mxCell>
        <mxCell id="collsionpoint-147" value="" style="ellipse;whiteSpace=wrap;html=1;aspect=fixed;fontSize=20;fillColor=#eeeeee;strokeColor=#36393d;" parent="1" vertex="1">
          <mxGeometry x="725" y="225" width="30" height="30" as="geometry" />
        </mxCell>
        <mxCell id="collsionpoint-148" value="" style="ellipse;whiteSpace=wrap;html=1;aspect=fixed;fontSize=20;fillColor=#eeeeee;strokeColor=#36393d;" parent="1" vertex="1">
          <mxGeometry x="745" y="225" width="30" height="30" as="geometry" />
        </mxCell>
        <mxCell id="collsionpoint-149" value="" style="ellipse;whiteSpace=wrap;html=1;aspect=fixed;fontSize=20;fillColor=#eeeeee;strokeColor=#36393d;" parent="1" vertex="1">
          <mxGeometry x="765" y="225" width="30" height="30" as="geometry" />
        </mxCell>
        <mxCell id="collsionpoint-150" value="" style="ellipse;whiteSpace=wrap;html=1;aspect=fixed;fontSize=20;fillColor=#eeeeee;strokeColor=#36393d;" parent="1" vertex="1">
          <mxGeometry x="785" y="225" width="30" height="30" as="geometry" />
        </mxCell>
        <mxCell id="collsionpoint-151" value="" style="ellipse;whiteSpace=wrap;html=1;aspect=fixed;fontSize=20;fillColor=#eeeeee;strokeColor=#36393d;" parent="1" vertex="1">
          <mxGeometry x="805" y="225" width="30" height="30" as="geometry" />
        </mxCell>
        <mxCell id="routepoint-0" value="" style="shape=waypoint;sketch=0;fillStyle=solid;size=6;pointerEvents=1;points=[];fillColor=none;resizable=0;rotatable=0;perimeter=centerPerimeter;snapToPoint=1;fontSize=20;" parent="1" vertex="1">
          <mxGeometry x="40" y="50" width="20" height="20" as="geometry" />
        </mxCell>
        <mxCell id="routepointtext-0" value="\(p_{0}\)" style="text;html=1;align=center;verticalAlign=middle;resizable=0;points=[];autosize=1;strokeColor=none;fillColor=none;fontSize=20;" parent="1" vertex="1">
          <mxGeometry x="35" y="25" width="70" height="30" as="geometry" />
        </mxCell>
        <mxCell id="routepoint-1" value="" style="shape=waypoint;sketch=0;fillStyle=solid;size=6;pointerEvents=1;points=[];fillColor=none;resizable=0;rotatable=0;perimeter=centerPerimeter;snapToPoint=1;fontSize=20;" parent="1" vertex="1">
          <mxGeometry x="40" y="50" width="20" height="20" as="geometry" />
        </mxCell>
        <mxCell id="routepointtext-1" value="\(p_{1}\)" style="text;html=1;align=center;verticalAlign=middle;resizable=0;points=[];autosize=1;strokeColor=none;fillColor=none;fontSize=20;" parent="1" vertex="1">
          <mxGeometry x="35" y="50" width="70" height="30" as="geometry" />
        </mxCell>
        <mxCell id="routepoint-2" value="" style="shape=waypoint;sketch=0;fillStyle=solid;size=6;pointerEvents=1;points=[];fillColor=none;resizable=0;rotatable=0;perimeter=centerPerimeter;snapToPoint=1;fontSize=20;" parent="1" vertex="1">
          <mxGeometry x="810" y="180" width="20" height="20" as="geometry" />
        </mxCell>
        <mxCell id="routepointtext-2" value="\(p_{2}\)" style="text;html=1;align=center;verticalAlign=middle;resizable=0;points=[];autosize=1;strokeColor=none;fillColor=none;fontSize=20;" parent="1" vertex="1">
          <mxGeometry x="765" y="155" width="70" height="30" as="geometry" />
        </mxCell>
        <mxCell id="routepoint-3" value="" style="shape=waypoint;sketch=0;fillStyle=solid;size=6;pointerEvents=1;points=[];fillColor=none;resizable=0;rotatable=0;perimeter=centerPerimeter;snapToPoint=1;fontSize=20;" parent="1" vertex="1">
          <mxGeometry x="810" y="180" width="20" height="20" as="geometry" />
        </mxCell>
        <mxCell id="routepointtext-3" value="\(p_{3}\)" style="text;html=1;align=center;verticalAlign=middle;resizable=0;points=[];autosize=1;strokeColor=none;fillColor=none;fontSize=20;" parent="1" vertex="1">
          <mxGeometry x="765" y="180" width="70" height="30" as="geometry" />
        </mxCell>
      </root>
    </mxGraphModel>
  </diagram>
</mxfile>
